<svg xmlns="http://www.w3.org/2000/svg" width="64" height="64" viewBox="0 0 64 64" version="1.1"><style>.s0{fill:#f60;}</style><g transform="translate(0,-988.36216)"><g transform="matrix(-0.7164286,0,0,-0.7164286,49.886585,1002.3804)" ><path d="M0 0 23.4-3.2 8.3-8.6 3.2-23.2 0 0Z" /></g><g transform="matrix(-0.7164286,0,0,-0.7164286,13.762608,1002.3804)" ><path d="M0 0-3.2-23.4-8.6-8.3-23.2-3.2 0 0Z" /></g><g transform="matrix(-0.7164286,0,0,-0.7164286,13.762608,1038.5047)" ><path d="M0 0-23.4 3.2-8.3 8.6-3.2 23.2 0 0Z" /></g><g transform="matrix(-0.7164286,0,0,-0.7164286,49.886585,1038.5047)" ><path d="M0 0 3.2 23.4 8.6 8.3 23.2 3.2 0 0Z" /></g><g transform="matrix(-0.7164286,0,0,-0.7164286,31.824417,988.44256)" ><path d="M0 0 14.3-18.8-0.2-11.9-14.2-18.6 0 0Z" /></g><g transform="matrix(-0.7164286,0,0,-0.7164286,-0.17558256,1020.4426)" ><path d="M0 0-18.8-14.3-11.9 0.2-18.6 14.2 0 0Z" /></g><g transform="matrix(-0.7164286,0,0,-0.7164286,31.824417,1052.4426)" ><path d="M0 0-14.3 18.8 0.2 11.9 14.2 18.6 0 0Z" /></g><g transform="matrix(-0.7164286,0,0,-0.7164286,63.824417,1020.4426)" ><path d="M0 0 18.8 14.3 11.9-0.2 18.6-14.2 0 0Z" /></g></g></svg>
